<mxfile host="app.diagrams.net" modified="2022-03-25T12:32:42.444Z" agent="5.0 (Macintosh; Intel Mac OS X 10_15_7) AppleWebKit/605.1.15 (KHTML, like Gecko) Version/15.4 Safari/605.1.15" etag="2v2i44qGDK_ns0lQqIvA" version="17.2.1" type="github">
  <diagram id="FQsRczLZp10Q2zyaTNeg" name="Page-1">
    <mxGraphModel dx="946" dy="645" grid="1" gridSize="10" guides="1" tooltips="1" connect="1" arrows="1" fold="1" page="1" pageScale="1" pageWidth="850" pageHeight="1100" math="0" shadow="0">
      <root>
        <mxCell id="0" />
        <mxCell id="1" parent="0" />
        <mxCell id="VlJcY3GAni6cceC7Ze4i-17" value="" style="edgeStyle=none;rounded=0;orthogonalLoop=1;jettySize=auto;html=1;" edge="1" parent="1" source="VlJcY3GAni6cceC7Ze4i-1" target="VlJcY3GAni6cceC7Ze4i-4">
          <mxGeometry relative="1" as="geometry" />
        </mxCell>
        <mxCell id="VlJcY3GAni6cceC7Ze4i-25" value="" style="edgeStyle=none;rounded=0;orthogonalLoop=1;jettySize=auto;html=1;fontFamily=Helvetica;" edge="1" parent="1" source="VlJcY3GAni6cceC7Ze4i-1" target="VlJcY3GAni6cceC7Ze4i-20">
          <mxGeometry relative="1" as="geometry" />
        </mxCell>
        <mxCell id="VlJcY3GAni6cceC7Ze4i-34" value="" style="edgeStyle=none;rounded=0;orthogonalLoop=1;jettySize=auto;html=1;fontFamily=Helvetica;" edge="1" parent="1" source="VlJcY3GAni6cceC7Ze4i-1" target="VlJcY3GAni6cceC7Ze4i-33">
          <mxGeometry relative="1" as="geometry" />
        </mxCell>
        <mxCell id="VlJcY3GAni6cceC7Ze4i-1" value="" style="aspect=fixed;perimeter=ellipsePerimeter;html=1;align=center;shadow=0;dashed=0;spacingTop=3;image;image=img/lib/active_directory/firewall.svg;" vertex="1" parent="1">
          <mxGeometry x="400" y="225.05" width="30.5" height="50" as="geometry" />
        </mxCell>
        <mxCell id="VlJcY3GAni6cceC7Ze4i-23" value="" style="edgeStyle=none;rounded=0;orthogonalLoop=1;jettySize=auto;html=1;fontFamily=Helvetica;" edge="1" parent="1" source="VlJcY3GAni6cceC7Ze4i-4" target="VlJcY3GAni6cceC7Ze4i-22">
          <mxGeometry relative="1" as="geometry" />
        </mxCell>
        <mxCell id="VlJcY3GAni6cceC7Ze4i-4" value="" style="sketch=0;points=[[0.015,0.015,0],[0.985,0.015,0],[0.985,0.985,0],[0.015,0.985,0],[0.25,0,0],[0.5,0,0],[0.75,0,0],[1,0.25,0],[1,0.5,0],[1,0.75,0],[0.75,1,0],[0.5,1,0],[0.25,1,0],[0,0.75,0],[0,0.5,0],[0,0.25,0]];verticalLabelPosition=bottom;html=1;verticalAlign=top;aspect=fixed;align=center;pointerEvents=1;shape=mxgraph.cisco19.rect;prIcon=l3_switch;fillColor=#FAFAFA;strokeColor=#005073;" vertex="1" parent="1">
          <mxGeometry x="520" y="225.05" width="50" height="50" as="geometry" />
        </mxCell>
        <mxCell id="VlJcY3GAni6cceC7Ze4i-6" value="" style="edgeStyle=orthogonalEdgeStyle;rounded=0;orthogonalLoop=1;jettySize=auto;html=1;" edge="1" parent="1" source="VlJcY3GAni6cceC7Ze4i-5" target="VlJcY3GAni6cceC7Ze4i-1">
          <mxGeometry relative="1" as="geometry" />
        </mxCell>
        <mxCell id="VlJcY3GAni6cceC7Ze4i-5" value="" style="sketch=0;points=[[0.015,0.015,0],[0.985,0.015,0],[0.985,0.985,0],[0.015,0.985,0],[0.25,0,0],[0.5,0,0],[0.75,0,0],[1,0.25,0],[1,0.5,0],[1,0.75,0],[0.75,1,0],[0.5,1,0],[0.25,1,0],[0,0.75,0],[0,0.5,0],[0,0.25,0]];verticalLabelPosition=bottom;html=1;verticalAlign=top;aspect=fixed;align=center;pointerEvents=1;shape=mxgraph.cisco19.rect;prIcon=l3_switch;fillColor=#FAFAFA;strokeColor=#005073;" vertex="1" parent="1">
          <mxGeometry x="255" y="225.05" width="50" height="50" as="geometry" />
        </mxCell>
        <mxCell id="VlJcY3GAni6cceC7Ze4i-11" value="" style="edgeStyle=orthogonalEdgeStyle;rounded=0;orthogonalLoop=1;jettySize=auto;html=1;" edge="1" parent="1" source="VlJcY3GAni6cceC7Ze4i-7" target="VlJcY3GAni6cceC7Ze4i-10">
          <mxGeometry relative="1" as="geometry">
            <Array as="points">
              <mxPoint x="280" y="355.05" />
              <mxPoint x="280" y="275.05" />
            </Array>
          </mxGeometry>
        </mxCell>
        <mxCell id="VlJcY3GAni6cceC7Ze4i-19" value="" style="edgeStyle=none;rounded=0;orthogonalLoop=1;jettySize=auto;html=1;" edge="1" parent="1" source="VlJcY3GAni6cceC7Ze4i-7" target="VlJcY3GAni6cceC7Ze4i-18">
          <mxGeometry relative="1" as="geometry">
            <Array as="points">
              <mxPoint x="540" y="355.05" />
            </Array>
          </mxGeometry>
        </mxCell>
        <mxCell id="VlJcY3GAni6cceC7Ze4i-21" value="" style="edgeStyle=none;rounded=0;orthogonalLoop=1;jettySize=auto;html=1;fontFamily=Helvetica;" edge="1" parent="1" source="VlJcY3GAni6cceC7Ze4i-7" target="VlJcY3GAni6cceC7Ze4i-20">
          <mxGeometry relative="1" as="geometry" />
        </mxCell>
        <mxCell id="VlJcY3GAni6cceC7Ze4i-7" value="" style="sketch=0;aspect=fixed;html=1;points=[];align=center;image;fontSize=12;image=img/lib/mscae/Load_Balancer_feature.svg;fontFamily=Helvetica;" vertex="1" parent="1">
          <mxGeometry x="390.25" y="330.05" width="50" height="50" as="geometry" />
        </mxCell>
        <mxCell id="VlJcY3GAni6cceC7Ze4i-10" value="" style="shape=waypoint;sketch=0;size=6;pointerEvents=1;points=[];fillColor=default;resizable=0;rotatable=0;perimeter=centerPerimeter;snapToPoint=1;verticalAlign=top;labelBackgroundColor=default;" vertex="1" parent="1">
          <mxGeometry x="255" y="255.05" width="40" height="40" as="geometry" />
        </mxCell>
        <mxCell id="VlJcY3GAni6cceC7Ze4i-13" value="" style="aspect=fixed;perimeter=ellipsePerimeter;html=1;align=center;shadow=0;dashed=0;spacingTop=3;image;image=img/lib/active_directory/internet_cloud.svg;" vertex="1" parent="1">
          <mxGeometry x="385.25" y="110" width="50" height="31.5" as="geometry" />
        </mxCell>
        <mxCell id="VlJcY3GAni6cceC7Ze4i-18" value="" style="shape=waypoint;sketch=0;size=6;pointerEvents=1;points=[];fillColor=default;resizable=0;rotatable=0;perimeter=centerPerimeter;snapToPoint=1;verticalAlign=top;labelBackgroundColor=default;" vertex="1" parent="1">
          <mxGeometry x="520" y="255.05" width="40" height="40" as="geometry" />
        </mxCell>
        <mxCell id="VlJcY3GAni6cceC7Ze4i-20" value="HV 1000&lt;br&gt;СМЭВ\ЕКЦ" style="whiteSpace=wrap;html=1;verticalAlign=top;sketch=0;labelBackgroundColor=default;" vertex="1" parent="1">
          <mxGeometry x="365.25" y="380.05" width="100" height="45" as="geometry" />
        </mxCell>
        <mxCell id="VlJcY3GAni6cceC7Ze4i-22" value="Switch&lt;br&gt;Extreme" style="whiteSpace=wrap;html=1;verticalAlign=top;fillColor=#FAFAFA;strokeColor=#005073;sketch=0;" vertex="1" parent="1">
          <mxGeometry x="500" y="190" width="90" height="35.05" as="geometry" />
        </mxCell>
        <mxCell id="VlJcY3GAni6cceC7Ze4i-24" value="Switch&lt;br&gt;Eltex" style="whiteSpace=wrap;html=1;verticalAlign=top;fillColor=#FAFAFA;strokeColor=#005073;sketch=0;" vertex="1" parent="1">
          <mxGeometry x="232.5" y="190" width="87.5" height="35.05" as="geometry" />
        </mxCell>
        <mxCell id="VlJcY3GAni6cceC7Ze4i-29" value="Firewall&lt;br&gt;" style="whiteSpace=wrap;html=1;verticalAlign=top;shadow=0;dashed=0;spacingTop=3;labelBackgroundColor=default;" vertex="1" parent="1">
          <mxGeometry x="375" y="270" width="85" height="25.05" as="geometry" />
        </mxCell>
        <mxCell id="VlJcY3GAni6cceC7Ze4i-33" value="" style="shape=waypoint;sketch=0;size=6;pointerEvents=1;points=[];fillColor=default;resizable=0;rotatable=0;perimeter=centerPerimeter;snapToPoint=1;verticalAlign=top;shadow=0;dashed=0;spacingTop=3;labelBackgroundColor=default;" vertex="1" parent="1">
          <mxGeometry x="390.25" y="110.00000000000001" width="40" height="40" as="geometry" />
        </mxCell>
        <mxCell id="VlJcY3GAni6cceC7Ze4i-36" value="port 23" style="text;html=1;align=center;verticalAlign=middle;resizable=0;points=[];autosize=1;strokeColor=none;fillColor=none;fontFamily=Helvetica;" vertex="1" parent="1">
          <mxGeometry x="560" y="280" width="50" height="20" as="geometry" />
        </mxCell>
        <mxCell id="VlJcY3GAni6cceC7Ze4i-37" value="port 40" style="text;html=1;align=center;verticalAlign=middle;resizable=0;points=[];autosize=1;strokeColor=none;fillColor=none;fontFamily=Helvetica;" vertex="1" parent="1">
          <mxGeometry x="210" y="280" width="50" height="20" as="geometry" />
        </mxCell>
        <mxCell id="VlJcY3GAni6cceC7Ze4i-38" value="ip x.x.x.112" style="text;html=1;align=center;verticalAlign=middle;resizable=0;points=[];autosize=1;strokeColor=none;fillColor=none;fontFamily=Helvetica;" vertex="1" parent="1">
          <mxGeometry x="470" y="360.05" width="80" height="20" as="geometry" />
        </mxCell>
        <mxCell id="VlJcY3GAni6cceC7Ze4i-39" value="ip x.x.x.166" style="text;html=1;align=center;verticalAlign=middle;resizable=0;points=[];autosize=1;strokeColor=none;fillColor=none;fontFamily=Helvetica;" vertex="1" parent="1">
          <mxGeometry x="270" y="360.05" width="80" height="20" as="geometry" />
        </mxCell>
        <mxCell id="VlJcY3GAni6cceC7Ze4i-40" value="ip x.x.x.169" style="text;html=1;align=center;verticalAlign=middle;resizable=0;points=[];autosize=1;strokeColor=none;fillColor=none;fontFamily=Helvetica;" vertex="1" parent="1">
          <mxGeometry x="377.5" y="295.05" width="80" height="20" as="geometry" />
        </mxCell>
        <mxCell id="VlJcY3GAni6cceC7Ze4i-42" value="ip x.x.x.254" style="text;html=1;align=center;verticalAlign=middle;resizable=0;points=[];autosize=1;strokeColor=none;fillColor=none;fontFamily=Helvetica;" vertex="1" parent="1">
          <mxGeometry x="505" y="160" width="80" height="20" as="geometry" />
        </mxCell>
        <mxCell id="VlJcY3GAni6cceC7Ze4i-43" value="ip x.x.x.1" style="text;html=1;align=center;verticalAlign=middle;resizable=0;points=[];autosize=1;strokeColor=none;fillColor=none;fontFamily=Helvetica;" vertex="1" parent="1">
          <mxGeometry x="242.5" y="160" width="60" height="20" as="geometry" />
        </mxCell>
      </root>
    </mxGraphModel>
  </diagram>
</mxfile>
